<svg xmlns="http://www.w3.org/2000/svg" viewBox="0 0 64 64" role="img" aria-label="Karpuz">
  <defs>
    <linearGradient id="f" x1="0" y1="0" x2="0" y2="1">
      <stop offset="0" stop-color="#fb4b40"/>
      <stop offset="1" stop-color="#d81e18"/>
    </linearGradient>
  </defs>
  <!-- karpuz dilimi: üst düz kesik, alt yeşil kavis, şeffaf zemin -->
  <path d="M3 16 H61 Q61 60 32 60 Q3 60 3 16 Z" fill="#0d0f10"/>
  <path d="M5 17 H59 Q59 58 32 58 Q5 58 5 17 Z" fill="#2f7d31"/>
  <path d="M9 19 H55 Q55 54 32 54 Q9 54 9 19 Z" fill="#bfd472"/>
  <path d="M12 20 H52 Q52 51 32 51 Q12 51 12 20 Z" fill="#fbeede"/>
  <path d="M15 21 H49 Q49 48 32 48 Q15 48 15 21 Z" fill="url(#f)"/>
  <!-- çekirdekler -->
  <g fill="#16110d">
    <ellipse cx="32" cy="39" rx="1.7" ry="2.9"/>
    <ellipse cx="23" cy="34" rx="1.7" ry="2.9" transform="rotate(-16 23 34)"/>
    <ellipse cx="41" cy="34" rx="1.7" ry="2.9" transform="rotate(16 41 34)"/>
    <ellipse cx="26" cy="43" rx="1.7" ry="2.9" transform="rotate(-8 26 43)"/>
    <ellipse cx="38" cy="43" rx="1.7" ry="2.9" transform="rotate(8 38 43)"/>
  </g>
</svg>
